<svg width="111" height="111" viewBox="0 0 111 111" fill="none" xmlns="http://www.w3.org/2000/svg">
<circle cx="55.5" cy="55.5" r="55.5" fill="#FFD2E1"/>
<path d="M40.0312 57.2188C46.6759 57.2188 52.0625 62.6053 52.0625 69.25C52.0625 75.8947 46.6759 81.2812 40.0312 81.2812C33.3866 81.2812 28 75.8947 28 69.25C28 62.6053 33.3866 57.2188 40.0312 57.2188ZM70.9688 57.2188C77.6134 57.2188 83 62.6053 83 69.25C83 75.8947 77.6134 81.2812 70.9688 81.2812C64.3241 81.2812 58.9375 75.8947 58.9375 69.25C58.9375 62.6053 64.3241 57.2188 70.9688 57.2188ZM55.5 29.7188C62.1447 29.7188 67.5312 35.1053 67.5312 41.75C67.5312 48.3947 62.1447 53.7812 55.5 53.7812C48.8553 53.7812 43.4688 48.3947 43.4688 41.75C43.4688 35.1053 48.8553 29.7188 55.5 29.7188Z" fill="url(#paint0_radial_421_862)"/>
<defs>
<radialGradient id="paint0_radial_421_862" cx="0" cy="0" r="1" gradientUnits="userSpaceOnUse" gradientTransform="translate(55.4517 61.4205) scale(36.4094 34.1309)">
<stop stop-color="#FFB900"/>
<stop offset="0.6" stop-color="#F95D8F"/>
<stop offset="1" stop-color="#F95353"/>
</radialGradient>
</defs>
</svg>
