<svg width="111" height="111" viewBox="0 0 111 111" fill="none" xmlns="http://www.w3.org/2000/svg">
<circle cx="55.5" cy="55.5" r="55.5" fill="#F7F0E5"/>
<path d="M82.4582 65.9775L77.8523 58.7381L77.4008 58.1125C76.6783 57.04 75.5042 56.4143 74.2398 56.4143L66.8343 56.325L66.3827 57.2187L57.5321 71.2506L57.0806 72.055L60.7834 77.9537C61.5059 79.0262 62.6799 79.6518 63.9443 79.6518H74.3302C75.5945 79.6518 76.8589 79.0262 77.4911 77.9537L77.8523 77.4175L82.4582 70.0887C83.1807 68.7481 83.1807 67.2287 82.4582 65.9775ZM81.0132 69.1056L76.4073 76.4343C76.4073 76.4343 76.4073 76.5237 76.317 76.5237C76.1364 76.7025 75.9558 76.7025 75.8655 76.7025C75.7751 76.7025 75.5042 76.7025 75.3236 76.4343L70.7177 69.1056C70.6274 69.0162 70.6274 68.9268 70.5371 68.8375C70.5371 68.7481 70.4467 68.6587 70.4467 68.5693C70.3564 68.2118 70.3564 67.8543 70.4467 67.4075C70.5371 67.2287 70.5371 67.05 70.7177 66.8712L75.3236 59.6318C75.4139 59.4531 75.5945 59.3637 75.6848 59.3637C75.7751 59.3637 75.7751 59.3637 75.7751 59.3637C75.7751 59.3637 75.7751 59.3637 75.8655 59.3637C75.9558 59.3637 76.2267 59.3637 76.4073 59.6318L81.0132 66.8712C81.4648 67.5862 81.4648 68.3906 81.0132 69.1056Z" fill="black"/>
<path d="M68.821 48.3706C69.5435 47.2088 69.5435 45.6 68.821 44.4381L64.2151 37.1987L63.8539 36.5731C63.1314 35.5006 61.9573 34.875 60.6929 34.875H50.3071C49.0427 34.875 47.8686 35.5006 47.1461 36.5731L28.5419 66.0669C28.1806 66.6031 28 67.3181 28 67.9438C28 68.6588 28.1806 69.2844 28.5419 69.91L33.509 77.775C34.2315 78.9369 35.4056 79.5625 36.7603 79.5625H47.1461C48.4105 79.5625 49.6749 78.9369 50.3071 77.8644L50.6683 77.2388L54.3711 71.34L65.2988 54.0012L68.821 48.3706ZM67.7373 46.4938C67.7373 46.8513 67.647 47.2087 67.376 47.5662L49.2233 76.345C49.0427 76.6131 48.7718 76.6131 48.6814 76.6131C48.5911 76.6131 48.3202 76.6131 48.1396 76.345L43.5337 69.0163C43.0821 68.3906 43.0821 67.4969 43.5337 66.8712L61.7767 38.0925C61.9573 37.8244 62.2282 37.8244 62.3186 37.8244C62.4089 37.8244 62.6798 37.8244 62.8604 38.0925L67.4663 45.3319C67.647 45.6894 67.7373 46.0469 67.7373 46.4938Z" fill="black"/>
</svg>
