<svg width="111" height="111" viewBox="0 0 111 111" fill="none" xmlns="http://www.w3.org/2000/svg">
<circle cx="55.5" cy="55.5" r="55.5" fill="#E1EDFF"/>
<g clip-path="url(#clip0_262_1202)">
<path d="M81.3753 38.1556C81.5142 37.9235 81.4453 37.6218 81.216 37.4781C79.5177 36.4134 72.9305 32.2845 69.0861 29.8784C68.8496 29.7304 68.5363 29.808 68.3901 30.0456C63.6362 37.7743 59.8943 40.4207 50.6428 35.9608C47.2874 34.3485 41.0331 31.3127 39.28 30.4615C39.0232 30.3368 38.7186 30.4534 38.6059 30.7157C36.7667 34.9947 33.5684 42.3103 32.755 44.1696C32.6471 44.4161 32.7499 44.6997 32.9923 44.8165C34.6856 45.6325 40.9673 48.6598 44.3438 50.2898C60.7123 58.4811 72.5911 52.8383 81.3753 38.1556Z" fill="url(#paint0_linear_262_1202)"/>
<path d="M30.6247 71.8444C30.4858 72.0765 30.5547 72.3782 30.784 72.5219C32.4823 73.5866 39.0696 77.7155 42.9139 80.1216C43.1504 80.2696 43.4637 80.192 43.6099 79.9544C48.3638 72.2257 52.1057 69.5793 61.3572 74.0392C64.7126 75.6515 70.9669 78.6873 72.72 79.5385C72.9768 79.6632 73.2814 79.5466 73.3941 79.2843C75.2333 75.0053 78.4316 67.6897 79.245 65.8304C79.3529 65.5839 79.2501 65.3003 79.0077 65.1835C77.3144 64.3675 71.0327 61.3402 67.6562 59.7102C51.2877 51.5189 39.4089 57.1617 30.6247 71.8444Z" fill="url(#paint1_linear_262_1202)"/>
</g>
<defs>
<linearGradient id="paint0_linear_262_1202" x1="34.3569" y1="26.2258" x2="46.3698" y2="53.1833" gradientUnits="userSpaceOnUse">
<stop offset="0.18" stop-color="#0052CC"/>
<stop offset="1" stop-color="#2684FF"/>
</linearGradient>
<linearGradient id="paint1_linear_262_1202" x1="77.6431" y1="83.7742" x2="65.6302" y2="56.8167" gradientUnits="userSpaceOnUse">
<stop offset="0.18" stop-color="#0052CC"/>
<stop offset="1" stop-color="#2684FF"/>
</linearGradient>
<clipPath id="clip0_262_1202">
<rect width="50" height="50" fill="white" transform="translate(31 30)"/>
</clipPath>
</defs>
</svg>
