<svg width="111" height="111" viewBox="0 0 111 111" fill="none" xmlns="http://www.w3.org/2000/svg">
<circle cx="55.5" cy="55.5" r="55.5" fill="#FFD2E1"/>
<path d="M80.5674 53.1797L57.8196 30.433C56.5098 29.1226 54.3852 29.1226 53.0742 30.433L48.351 35.1573L54.3426 41.1489C55.7352 40.6783 57.3319 40.9941 58.4416 42.1043C59.558 43.2213 59.871 44.8316 59.3885 46.2293L65.164 52.0043C66.5617 51.5223 68.1732 51.8342 69.289 52.9518C70.8483 54.5111 70.8483 57.0377 69.289 58.5981C67.7286 60.1579 65.202 60.1579 63.6411 58.5981C62.4685 57.4244 62.1782 55.7006 62.773 54.2559L57.3864 48.8699V63.0434C57.7663 63.2317 58.1252 63.4823 58.4416 63.7987C60.0008 65.358 60.0008 67.8846 58.4416 69.4455C56.8823 71.0043 54.354 71.0043 52.7958 69.4455C51.2366 67.884 51.2366 65.3574 52.7958 63.7987C53.1814 63.4137 53.6276 63.1222 54.1039 62.9272V48.6215C53.6276 48.4265 53.1825 48.1379 52.7958 47.75C51.6148 46.5695 51.3307 44.8356 51.9363 43.3852L46.0297 37.4775L30.4313 53.0743C29.1209 54.3858 29.1209 56.5103 30.4313 57.8207L53.1803 80.568C54.4901 81.8784 56.6141 81.8784 57.9256 80.568L80.5674 57.9262C81.8778 56.6158 81.8778 54.4901 80.5674 53.1797Z" fill="#F05133"/>
</svg>
