<svg width="111" height="111" viewBox="0 0 111 111" fill="none" xmlns="http://www.w3.org/2000/svg">
<circle cx="55.5" cy="55.5" r="55.5" fill="#F7F0E5"/>
<g clip-path="url(#clip0_262_1175)">
<path d="M55.5 28.6787C40.32 28.6787 28 40.991 28 56.1787C28 68.3293 35.8793 78.6374 46.81 82.274C48.1839 82.5281 48.6888 81.6778 48.6888 80.954C48.6888 80.294 48.6635 78.1325 48.6514 75.8346C41.0009 77.4978 39.3861 72.5896 39.3861 72.5896C38.1354 69.4106 36.3325 68.5658 36.3325 68.5658C33.8377 66.8586 36.5206 66.8938 36.5206 66.8938C39.2827 67.0885 40.7369 69.7285 40.7369 69.7285C43.1888 73.9327 47.1697 72.7172 48.7394 72.0143C48.9858 70.2367 49.6986 69.0234 50.4851 68.337C44.3768 67.6418 37.9561 65.2834 37.9561 54.7465C37.9561 51.7435 39.0297 49.2905 40.7897 47.3644C40.5037 46.6714 39.5621 43.8752 41.0559 40.0868C41.0559 40.0868 43.3659 39.3476 48.6206 42.9061C53.1284 41.6727 57.8848 41.6727 62.3926 42.9061C67.6418 39.3476 69.9474 40.0868 69.9474 40.0868C71.4445 43.8752 70.5029 46.6714 70.2169 47.3644C71.9769 49.2905 73.0472 51.7435 73.0472 54.7465C73.0472 65.3065 66.6144 67.6341 60.4907 68.315C61.4807 69.1686 62.3607 70.845 62.3607 73.408C62.3607 77.0875 62.3288 80.0487 62.3288 80.954C62.3288 81.6866 62.8238 82.5435 64.2175 82.274C75.1306 78.6297 83 68.3249 83 56.1787C83 40.991 70.6877 28.6787 55.5 28.6787ZM38.2993 67.853C38.2388 67.9905 38.0243 68.0312 37.8285 67.9377C37.6327 67.8442 37.5172 67.6616 37.5821 67.5241C37.647 67.3866 37.856 67.3448 38.0551 67.4383C38.2542 67.5318 38.3686 67.7166 38.2993 67.853ZM39.6523 69.063C39.5214 69.184 39.2651 69.1279 39.0913 68.9354C38.9175 68.7429 38.8779 68.4877 39.0099 68.3645C39.1419 68.2413 39.3938 68.2996 39.5742 68.491C39.7546 68.6824 39.7898 68.9376 39.6523 69.0608V69.063ZM40.5807 70.603C40.4124 70.7196 40.1407 70.6096 39.9658 70.3654C39.7909 70.1212 39.7975 69.8275 39.9658 69.7054C40.1341 69.5833 40.4058 69.6933 40.5796 69.9364C40.7534 70.1795 40.7523 70.4853 40.5807 70.6052V70.603ZM42.1504 72.3916C41.9997 72.5577 41.6785 72.5126 41.4431 72.2816C41.2077 72.0506 41.1362 71.7448 41.2869 71.5787C41.4376 71.4126 41.7621 71.4588 41.9997 71.6887C42.2373 71.9186 42.311 72.2288 42.1504 72.3938V72.3916ZM44.1788 72.9944C44.1117 73.2144 43.8026 73.3079 43.4913 73.2144C43.18 73.1209 42.9765 72.8679 43.0392 72.6501C43.1019 72.4323 43.4143 72.3311 43.7278 72.4301C44.0413 72.5291 44.2426 72.7777 44.1788 72.9966V72.9944ZM46.4888 73.2507C46.4965 73.4773 46.2325 73.6654 45.9058 73.6698C45.5791 73.6742 45.3107 73.4938 45.3074 73.2705C45.3041 73.0472 45.5648 72.8558 45.8937 72.8503C46.2226 72.8448 46.4866 73.0274 46.4866 73.2529L46.4888 73.2507ZM48.757 73.1638C48.7955 73.3838 48.5689 73.6126 48.2433 73.6731C47.9177 73.7336 47.6295 73.595 47.5888 73.375C47.5481 73.155 47.7802 72.9218 48.0992 72.8624C48.4182 72.803 48.713 72.9416 48.7548 73.166L48.757 73.1638Z" fill="#161614"/>
</g>
<defs>
<clipPath id="clip0_262_1175">
<rect width="55" height="55" fill="white" transform="translate(28 28)"/>
</clipPath>
</defs>
</svg>
