<svg width="111" height="111" viewBox="0 0 111 111" fill="none" xmlns="http://www.w3.org/2000/svg">
<circle cx="55.5" cy="55.5" r="55.5" fill="#FFD2E1"/>
<mask id="mask0_421_848" style="mask-type:alpha" maskUnits="userSpaceOnUse" x="28" y="31" width="55" height="52">
<path d="M82.8974 60.409L79.8165 50.9398L73.7198 32.1579C73.6497 31.9484 73.5154 31.7662 73.336 31.6371C73.1567 31.508 72.9413 31.4386 72.7203 31.4386C72.4993 31.4386 72.2839 31.508 72.1046 31.6371C71.9252 31.7662 71.7909 31.9484 71.7208 32.1579L65.6241 50.9284H45.3677L39.271 32.1579C39.2013 31.9482 39.0673 31.7657 38.888 31.6364C38.7088 31.5071 38.4933 31.4375 38.2723 31.4375C38.0513 31.4375 37.8358 31.5071 37.6566 31.6364C37.4773 31.7657 37.3433 31.9482 37.2736 32.1579L31.1867 50.9284L28.1058 60.409C27.9689 60.8299 27.9686 61.2833 28.105 61.7044C28.2414 62.1255 28.5074 62.4927 28.865 62.7535L55.4983 82.1056L82.1268 62.7535C82.486 62.4939 82.754 62.1273 82.8924 61.7063C83.0308 61.2852 83.0326 60.8311 82.8974 60.409" fill="#FC6D26"/>
</mask>
<g mask="url(#mask0_421_848)">
<path d="M55.5004 82.091L65.6278 50.9268H79.825L55.5004 82.091Z" fill="#FC6D26"/>
<path d="M55.5001 82.091L65.6275 50.9268H45.3776L55.5001 82.091Z" fill="#E24329"/>
<path d="M55.5002 82.091L45.3695 50.9268H31.1951L55.5002 82.091Z" fill="#FC6D26"/>
<path d="M31.1838 50.9365L28.1029 60.4057C27.966 60.8266 27.9657 61.2801 28.1021 61.7011C28.2384 62.1222 28.5045 62.4894 28.8621 62.7502L55.5002 82.1057L31.1838 50.9365Z" fill="#FCA326"/>
<path d="M31.1886 50.9365H45.381L39.2729 32.1676C39.2027 31.958 39.0685 31.7758 38.8891 31.6468C38.7098 31.5177 38.4944 31.4482 38.2734 31.4482C38.0524 31.4482 37.837 31.5177 37.6576 31.6468C37.4783 31.7758 37.344 31.958 37.2738 32.1676L31.1886 50.9365Z" fill="#E24329"/>
<path d="M79.8154 50.9365L82.8963 60.4057C83.034 60.8266 83.0346 61.2802 82.8982 61.7015C82.7618 62.1228 82.4953 62.4899 82.1371 62.7502L55.5004 82.091L79.8089 50.9365H79.8154Z" fill="#FCA326"/>
<path d="M79.8212 50.9366H65.6306L71.7272 32.1677C71.7969 31.9579 71.9309 31.7755 72.1102 31.6462C72.2895 31.5169 72.5049 31.4473 72.7259 31.4473C72.9469 31.4473 73.1624 31.5169 73.3416 31.6462C73.5209 31.7755 73.6549 31.9579 73.7246 32.1677L79.8212 50.9366Z" fill="#E24329"/>
</g>
</svg>
