<svg width="111" height="111" viewBox="0 0 111 111" fill="none" xmlns="http://www.w3.org/2000/svg">
<circle cx="55.5" cy="55.5" r="55.5" fill="#E5F4E8"/>
<g clip-path="url(#clip0_262_1156)">
<path d="M31.6943 72.7075L34.1399 76.9318C34.6481 77.8212 35.3787 78.5199 36.2362 79.0282L44.9708 63.9095H27.5017C27.5017 64.894 27.7558 65.8788 28.264 66.7682L31.6943 72.7075Z" fill="#0066DA"/>
<path d="M55.2298 46.1214L46.4953 31.0027C45.6378 31.5109 44.9072 32.2096 44.399 33.099L28.264 61.0494C27.7652 61.9197 27.5024 62.905 27.5017 63.9081H44.9708L55.2298 46.1214Z" fill="#00AC47"/>
<path d="M74.2237 79.0282C75.0813 78.5199 75.8118 77.8212 76.3198 76.9318L77.3364 75.185L82.1958 66.7682C82.7041 65.8788 82.9581 64.894 82.9581 63.9095H65.4879L69.2053 71.2147L74.2237 79.0282Z" fill="#EA4335"/>
<path d="M55.23 46.1228L63.9647 31.0041C63.1071 30.4959 62.1223 30.2418 61.106 30.2418H49.3541C48.3378 30.2418 47.3531 30.5277 46.4955 31.0041L55.23 46.1228Z" fill="#00832D"/>
<path d="M65.489 63.9095H44.971L36.2365 79.0282C37.094 79.5362 38.0786 79.7905 39.095 79.7905H71.3651C72.3816 79.7905 73.3661 79.5047 74.2237 79.0282L65.489 63.9095Z" fill="#2684FC"/>
<path d="M74.1283 47.0757L66.0608 33.1005C65.5528 32.2112 64.822 31.5124 63.9647 31.0042L55.23 46.1229L65.4892 63.9095H82.9265C82.9265 62.925 82.6723 61.9402 82.1643 61.0511L74.1283 47.0757Z" fill="#FFBA00"/>
</g>
<defs>
<clipPath id="clip0_262_1156">
<rect width="55" height="55" fill="white" transform="translate(28 28)"/>
</clipPath>
</defs>
</svg>
