<svg width="82" height="82" viewBox="0 0 82 82" fill="none" xmlns="http://www.w3.org/2000/svg">
<rect width="82" height="82" rx="41" fill="#00AC47" fill-opacity="0.13"/>
<g clip-path="url(#clip0_871_11)">
<mask id="mask0_871_11" style="mask-type:luminance" maskUnits="userSpaceOnUse" x="25" y="18" width="32" height="44">
<path d="M44.8639 18.6294H28.4421C26.8483 18.6294 25.5442 19.9408 25.5442 21.5436V58.4565C25.5442 60.0593 26.8483 61.3707 28.4421 61.3707H53.5578C55.1517 61.3707 56.4558 60.0593 56.4558 58.4565V30.2861L44.8639 18.6294Z" fill="white"/>
</mask>
<g mask="url(#mask0_871_11)">
<path d="M44.8639 18.6294H28.4421C26.8483 18.6294 25.5442 19.9408 25.5442 21.5436V58.4565C25.5442 60.0593 26.8483 61.3707 28.4421 61.3707H53.5578C55.1517 61.3707 56.4558 60.0593 56.4558 58.4565V30.2861L49.6938 25.4291L44.8639 18.6294Z" fill="#0F9D58"/>
</g>
<mask id="mask1_871_11" style="mask-type:luminance" maskUnits="userSpaceOnUse" x="25" y="18" width="32" height="44">
<path d="M44.8639 18.6294H28.4421C26.8483 18.6294 25.5442 19.9408 25.5442 21.5436V58.4565C25.5442 60.0593 26.8483 61.3707 28.4421 61.3707H53.5578C55.1517 61.3707 56.4558 60.0593 56.4558 58.4565V30.2861L44.8639 18.6294Z" fill="white"/>
</mask>
<g mask="url(#mask1_871_11)">
<path d="M33.2721 39.5144V53.5996H48.7279V39.5144H33.2721ZM40.034 51.6568H35.2041V49.2283H40.034V51.6568ZM40.034 47.7712H35.2041V45.3428H40.034V47.7712ZM40.034 43.8857H35.2041V41.4572H40.034V43.8857ZM46.7959 51.6568H41.966V49.2283H46.7959V51.6568ZM46.7959 47.7712H41.966V45.3428H46.7959V47.7712ZM46.7959 43.8857H41.966V41.4572H46.7959V43.8857Z" fill="#F1F1F1"/>
</g>
<mask id="mask2_871_11" style="mask-type:luminance" maskUnits="userSpaceOnUse" x="25" y="18" width="32" height="44">
<path d="M44.8639 18.6294H28.4421C26.8483 18.6294 25.5442 19.9408 25.5442 21.5436V58.4565C25.5442 60.0593 26.8483 61.3707 28.4421 61.3707H53.5578C55.1517 61.3707 56.4558 60.0593 56.4558 58.4565V30.2861L44.8639 18.6294Z" fill="white"/>
</mask>
<g mask="url(#mask2_871_11)">
<path d="M45.7116 29.4336L56.4558 40.2355V30.286L45.7116 29.4336Z" fill="url(#paint0_linear_871_11)"/>
</g>
<mask id="mask3_871_11" style="mask-type:luminance" maskUnits="userSpaceOnUse" x="25" y="18" width="32" height="44">
<path d="M44.8639 18.6294H28.4421C26.8483 18.6294 25.5442 19.9408 25.5442 21.5436V58.4565C25.5442 60.0593 26.8483 61.3707 28.4421 61.3707H53.5578C55.1517 61.3707 56.4558 60.0593 56.4558 58.4565V30.2861L44.8639 18.6294Z" fill="white"/>
</mask>
<g mask="url(#mask3_871_11)">
<path d="M44.8639 18.6294V27.3719C44.8639 28.982 46.1608 30.2861 47.7619 30.2861H56.4558L44.8639 18.6294Z" fill="#87CEAC"/>
</g>
<mask id="mask4_871_11" style="mask-type:luminance" maskUnits="userSpaceOnUse" x="25" y="18" width="32" height="44">
<path d="M44.8639 18.6294H28.4421C26.8483 18.6294 25.5442 19.9408 25.5442 21.5436V58.4565C25.5442 60.0593 26.8483 61.3707 28.4421 61.3707H53.5578C55.1517 61.3707 56.4558 60.0593 56.4558 58.4565V30.2861L44.8639 18.6294Z" fill="white"/>
</mask>
<g mask="url(#mask4_871_11)">
<path d="M28.4421 18.6294C26.8483 18.6294 25.5442 19.9408 25.5442 21.5436V21.7864C25.5442 20.1836 26.8483 18.8722 28.4421 18.8722H44.8639V18.6294H28.4421Z" fill="white" fill-opacity="0.2"/>
</g>
<mask id="mask5_871_11" style="mask-type:luminance" maskUnits="userSpaceOnUse" x="25" y="18" width="32" height="44">
<path d="M44.8639 18.6294H28.4421C26.8483 18.6294 25.5442 19.9408 25.5442 21.5436V58.4565C25.5442 60.0593 26.8483 61.3707 28.4421 61.3707H53.5578C55.1517 61.3707 56.4558 60.0593 56.4558 58.4565V30.2861L44.8639 18.6294Z" fill="white"/>
</mask>
<g mask="url(#mask5_871_11)">
<path d="M53.5578 61.1278H28.4421C26.8483 61.1278 25.5442 59.8164 25.5442 58.2136V58.4565C25.5442 60.0593 26.8483 61.3707 28.4421 61.3707H53.5578C55.1517 61.3707 56.4558 60.0593 56.4558 58.4565V58.2136C56.4558 59.8164 55.1517 61.1278 53.5578 61.1278Z" fill="#263238" fill-opacity="0.2"/>
</g>
<mask id="mask6_871_11" style="mask-type:luminance" maskUnits="userSpaceOnUse" x="25" y="18" width="32" height="44">
<path d="M44.8639 18.6294H28.4421C26.8483 18.6294 25.5442 19.9408 25.5442 21.5436V58.4565C25.5442 60.0593 26.8483 61.3707 28.4421 61.3707H53.5578C55.1517 61.3707 56.4558 60.0593 56.4558 58.4565V30.2861L44.8639 18.6294Z" fill="white"/>
</mask>
<g mask="url(#mask6_871_11)">
<path d="M47.7619 30.286C46.1608 30.286 44.8639 28.9819 44.8639 27.3718V27.6147C44.8639 29.2248 46.1608 30.5289 47.7619 30.5289H56.4558V30.286H47.7619Z" fill="#263238" fill-opacity="0.1"/>
</g>
<path d="M44.8639 18.6294H28.4421C26.8483 18.6294 25.5442 19.9408 25.5442 21.5436V58.4565C25.5442 60.0593 26.8483 61.3707 28.4421 61.3707H53.5578C55.1517 61.3707 56.4558 60.0593 56.4558 58.4565V30.2861L44.8639 18.6294Z" fill="url(#paint1_radial_871_11)"/>
</g>
<defs>
<linearGradient id="paint0_linear_871_11" x1="582.979" y1="122.18" x2="582.979" y2="1109.77" gradientUnits="userSpaceOnUse">
<stop stop-color="#263238" stop-opacity="0.2"/>
<stop offset="1" stop-color="#263238" stop-opacity="0.02"/>
</linearGradient>
<radialGradient id="paint1_radial_871_11" cx="0" cy="0" r="1" gradientUnits="userSpaceOnUse" gradientTransform="translate(123.474 103.105) scale(4984.44 5012.34)">
<stop stop-color="white" stop-opacity="0.1"/>
<stop offset="1" stop-color="white" stop-opacity="0"/>
</radialGradient>
<clipPath id="clip0_871_11">
<rect width="31" height="43" fill="white" transform="translate(25 19)"/>
</clipPath>
</defs>
</svg>
