<svg width="82" height="82" viewBox="0 0 82 82" fill="none" xmlns="http://www.w3.org/2000/svg">
<circle cx="41" cy="41" r="41" fill="#00AC47" fill-opacity="0.13"/>
<path d="M23.2824 54.5931L25.1495 57.8181C25.5375 58.4971 26.0952 59.0306 26.7499 59.4186L33.4181 47.8765H20.0816C20.0816 48.6281 20.2756 49.3799 20.6636 50.0589L23.2824 54.5931Z" fill="#0066DA"/>
<path d="M41.2502 34.2965L34.582 22.7544C33.9273 23.1424 33.3696 23.6758 32.9816 24.3548L20.6636 45.6931C20.2828 46.3575 20.0821 47.1097 20.0816 47.8755H33.4181L41.2502 34.2965Z" fill="#00AC47"/>
<path d="M55.7506 59.4186C56.4053 59.0306 56.963 58.4971 57.3508 57.8181L58.1269 56.4846L61.8368 50.0589C62.2248 49.3799 62.4187 48.6281 62.4187 47.8765H49.0814L51.9194 53.4535L55.7506 59.4186Z" fill="#EA4335"/>
<path d="M41.2502 34.2974L47.9185 22.7553C47.2638 22.3673 46.512 22.1733 45.7361 22.1733H36.7643C35.9884 22.1733 35.2367 22.3916 34.582 22.7553L41.2502 34.2974Z" fill="#00832D"/>
<path d="M49.0824 47.8765H33.4182L26.75 59.4186C27.4047 59.8064 28.1564 60.0005 28.9323 60.0005H53.5684C54.3444 60.0005 55.096 59.7824 55.7508 59.4186L49.0824 47.8765Z" fill="#2684FC"/>
<path d="M55.6778 35.0249L49.5188 24.3558C49.131 23.6768 48.5731 23.1433 47.9185 22.7554L41.2502 34.2975L49.0824 47.8764H62.3947C62.3947 47.1248 62.2006 46.373 61.8127 45.6942L55.6778 35.0249Z" fill="#FFBA00"/>
</svg>
