<svg width="82" height="82" viewBox="0 0 82 82" fill="none" xmlns="http://www.w3.org/2000/svg">
<path d="M56.1115 43.0707C56.1115 43.438 55.9667 43.7901 55.709 44.0499C55.4515 44.3095 55.1019 44.4553 54.7377 44.4553C54.3734 44.4553 54.024 44.3095 53.7663 44.0499C53.5086 43.7901 53.364 43.438 53.364 43.0707V30.7023C53.364 30.3351 53.5086 29.9829 53.7663 29.7233C54.024 29.4637 54.3734 29.3178 54.7377 29.3178C55.1019 29.3178 55.4515 29.4637 55.709 29.7233C55.9667 29.9829 56.1115 30.3351 56.1115 30.7023V43.0707ZM55.6346 51.6407C55.4529 51.8239 50.3438 56.1145 40.9773 56.1145C31.6107 56.1145 26.5357 51.8468 26.32 51.6637C26.184 51.548 26.0721 51.4068 25.9905 51.2474C25.9089 51.0882 25.8593 50.9143 25.8445 50.7357C25.8297 50.5572 25.8501 50.3774 25.9044 50.2068C25.9587 50.0362 26.0459 49.878 26.161 49.7414C26.3981 49.4649 26.7341 49.2941 27.0956 49.2662C27.4572 49.2384 27.815 49.3557 28.0911 49.5926C28.1706 49.6499 32.7346 53.3799 40.9659 53.3799C49.1971 53.3799 53.7952 49.627 53.8409 49.5926C54.1198 49.3578 54.479 49.242 54.8415 49.2699C55.204 49.2976 55.5415 49.4668 55.7821 49.7414C56.0138 50.0139 56.1294 50.3672 56.104 50.7251C56.0784 51.0828 55.9138 51.4159 55.6459 51.6522L55.6346 51.6407ZM25.8317 30.7023C25.8523 30.3339 26.0167 29.9888 26.289 29.7422C26.5613 29.4956 26.9194 29.3678 27.285 29.3864C27.6239 29.4058 27.9438 29.5511 28.1828 29.794C28.4217 30.037 28.563 30.3605 28.5793 30.7023V43.048C28.5793 43.4151 28.4346 43.7672 28.177 44.027C27.9193 44.2866 27.5699 44.4324 27.2055 44.4324C26.8412 44.4324 26.4918 44.2866 26.2341 44.027C25.9765 43.7672 25.8317 43.4151 25.8317 43.048V30.7023ZM32.7233 27.9563C32.7439 27.5879 32.9082 27.2427 33.1805 26.9962C33.4529 26.7496 33.8109 26.6217 34.1765 26.6404C34.5155 26.6598 34.8353 26.8051 35.0743 27.048C35.3133 27.2909 35.4545 27.6145 35.4708 27.9563V46.263C35.4708 46.6303 35.3261 46.9824 35.0685 47.242C34.8108 47.5018 34.4614 47.6476 34.0971 47.6476C33.7327 47.6476 33.3833 47.5018 33.1257 47.242C32.8681 46.9824 32.7233 46.6303 32.7233 46.263V27.9563ZM39.649 27.2698C39.649 26.9026 39.7936 26.5504 40.0513 26.2908C40.309 26.0311 40.6584 25.8853 41.0227 25.8853C41.3871 25.8853 41.7365 26.0311 41.9942 26.2908C42.2517 26.5504 42.3965 26.9026 42.3965 27.2698V47.1784C42.3965 47.5455 42.2517 47.8978 41.9942 48.1574C41.7365 48.417 41.3871 48.5628 41.0227 48.5628C40.6584 48.5628 40.309 48.417 40.0513 48.1574C39.7936 47.8978 39.649 47.5455 39.649 47.1784V27.2698ZM46.4611 27.9563C46.4611 27.5891 46.6057 27.2369 46.8634 26.9773C47.1211 26.7176 47.4704 26.5718 47.8348 26.5718C48.1992 26.5718 48.5486 26.7176 48.8061 26.9773C49.0638 27.2369 49.2086 27.5891 49.2086 27.9563V46.263C49.2086 46.6303 49.0638 46.9824 48.8061 47.242C48.5486 47.5018 48.1992 47.6476 47.8348 47.6476C47.4704 47.6476 47.1211 47.5018 46.8634 47.242C46.6057 46.9824 46.4611 46.6303 46.4611 46.263V27.9563ZM56.4861 20.4047H25.5139C24.839 20.4001 24.1699 20.5298 23.5448 20.7863C22.9198 21.0427 22.351 21.4209 21.8712 21.8992C21.3913 22.3774 21.0098 22.9463 20.7484 23.5734C20.4871 24.2005 20.351 24.8733 20.348 25.5535V56.4464C20.351 57.1264 20.4871 57.7993 20.7484 58.4264C21.0098 59.0535 21.3913 59.6224 21.8712 60.1007C22.351 60.5789 22.9198 60.957 23.5448 61.2134C24.1699 61.4699 24.839 61.5997 25.5139 61.5951H56.4861C57.16 61.5997 57.8282 61.4703 58.4525 61.2147C59.0769 60.9589 59.645 60.5818 60.1248 60.1047C60.6046 59.6276 60.9863 59.0599 61.2484 58.4343C61.5102 57.8084 61.6475 57.137 61.6519 56.4578V25.5535C61.649 24.8743 61.5134 24.2024 61.2525 23.5761C60.9919 22.9498 60.6115 22.3813 60.1327 21.9032C59.6542 21.4251 59.0869 21.0467 58.4629 20.7896C57.8392 20.5324 57.1715 20.4017 56.4975 20.4047" fill="#338CF9"/>
<circle cx="41" cy="41" r="41" fill="#2684FC" fill-opacity="0.15"/>
</svg>
