<svg width="111" height="111" viewBox="0 0 111 111" fill="none" xmlns="http://www.w3.org/2000/svg">
<circle cx="55.5" cy="55.5" r="55.5" fill="#E1EDFF"/>
<g clip-path="url(#clip0_262_1151)">
<path d="M73.9897 57.4653C73.9897 57.9026 73.8173 58.3217 73.5105 58.631C73.204 58.94 72.7878 59.1136 72.3543 59.1136C71.9205 59.1136 71.5046 58.94 71.1978 58.631C70.891 58.3217 70.7189 57.9026 70.7189 57.4653V42.741C70.7189 42.3038 70.891 41.8846 71.1978 41.5755C71.5046 41.2665 71.9205 41.0928 72.3543 41.0928C72.7878 41.0928 73.204 41.2665 73.5105 41.5755C73.8173 41.8846 73.9897 42.3038 73.9897 42.741V57.4653ZM73.422 67.6677C73.2057 67.8857 67.1234 72.9936 55.9728 72.9936C44.8221 72.9936 38.7805 67.913 38.5236 67.695C38.3617 67.5573 38.2285 67.3892 38.1313 67.1995C38.0342 67.01 37.9751 66.8029 37.9576 66.5903C37.94 66.3778 37.9643 66.1637 38.0289 65.9606C38.0935 65.7575 38.1973 65.5692 38.3344 65.4065C38.6166 65.0774 39.0166 64.8741 39.447 64.8408C39.8775 64.8078 40.3034 64.9475 40.6321 65.2295C40.7267 65.2977 46.1601 69.7381 55.9592 69.7381C65.7583 69.7381 71.2323 65.2704 71.2866 65.2295C71.6187 64.9499 72.0463 64.812 72.4778 64.8453C72.9094 64.8783 73.3111 65.0797 73.5976 65.4065C73.8734 65.7309 74.011 66.1516 73.9808 66.5777C73.9503 67.0035 73.7543 67.4001 73.4354 67.6813L73.422 67.6677ZM37.9424 42.741C37.9669 42.3024 38.1626 41.8915 38.4868 41.598C38.8109 41.3045 39.2372 41.1523 39.6724 41.1745C40.0759 41.1976 40.4567 41.3705 40.7412 41.6597C41.0257 41.949 41.1939 42.3341 41.2133 42.741V57.4383C41.2133 57.8753 41.041 58.2944 40.7343 58.6037C40.4275 58.9127 40.0116 59.0864 39.5779 59.0864C39.1441 59.0864 38.7281 58.9127 38.4214 58.6037C38.1147 58.2944 37.9424 57.8753 37.9424 57.4383V42.741ZM46.1467 39.4719C46.1711 39.0334 46.3668 38.6225 46.691 38.3289C47.0151 38.0354 47.4414 37.8832 47.8767 37.9054C48.2802 37.9285 48.6609 38.1014 48.9455 38.3906C49.2299 38.6799 49.3981 39.065 49.4175 39.4719V61.2657C49.4175 61.7029 49.2452 62.1221 48.9385 62.4311C48.6318 62.7404 48.2158 62.914 47.7821 62.914C47.3483 62.914 46.9323 62.7404 46.6256 62.4311C46.319 62.1221 46.1467 61.7029 46.1467 61.2657V39.4719ZM54.3915 38.6546C54.3915 38.2175 54.5636 37.7983 54.8704 37.4892C55.1772 37.1801 55.5931 37.0064 56.0269 37.0064C56.4607 37.0064 56.8766 37.1801 57.1834 37.4892C57.49 37.7983 57.6623 38.2175 57.6623 38.6546V62.3555C57.6623 62.7925 57.49 63.2118 57.1834 63.5209C56.8766 63.8299 56.4607 64.0035 56.0269 64.0035C55.5931 64.0035 55.1772 63.8299 54.8704 63.5209C54.5636 63.2118 54.3915 62.7925 54.3915 62.3555V38.6546ZM62.5011 39.4719C62.5011 39.0348 62.6732 38.6155 62.98 38.3064C63.2868 37.9973 63.7028 37.8237 64.1365 37.8237C64.5703 37.8237 64.9862 37.9973 65.2928 38.3064C65.5996 38.6155 65.7719 39.0348 65.7719 39.4719V61.2657C65.7719 61.7029 65.5996 62.1221 65.2928 62.4311C64.9862 62.7404 64.5703 62.914 64.1365 62.914C63.7028 62.914 63.2868 62.7404 62.98 62.4311C62.6732 62.1221 62.5011 61.7029 62.5011 61.2657V39.4719ZM74.4356 30.4819H37.564C36.7606 30.4765 35.964 30.6309 35.2198 30.9362C34.4758 31.2415 33.7987 31.6917 33.2274 32.2611C32.6561 32.8304 32.202 33.5077 31.8908 34.2542C31.5797 35.0007 31.4177 35.8018 31.4142 36.6114V73.3887C31.4177 74.1982 31.5797 74.9993 31.8908 75.7458C32.202 76.4924 32.6561 77.1697 33.2274 77.7391C33.7987 78.3083 34.4758 78.7585 35.2198 79.0638C35.964 79.3691 36.7606 79.5236 37.564 79.5182H74.4356C75.238 79.5236 76.0334 79.3696 76.7767 79.0653C77.52 78.7607 78.1963 78.3118 78.7675 77.7438C79.3387 77.1759 79.793 76.5 80.105 75.7553C80.4168 75.0102 80.5802 74.2109 80.5854 73.4023V36.6114C80.582 35.8029 80.4205 35.003 80.11 34.2574C79.7997 33.5118 79.3469 32.8351 78.7769 32.2659C78.2072 31.6967 77.5319 31.2462 76.7891 30.9401C76.0465 30.634 75.2516 30.4783 74.4493 30.4819" fill="#338CF9"/>
</g>
<defs>
<clipPath id="clip0_262_1151">
<rect width="50" height="50" fill="white" transform="translate(31 30)"/>
</clipPath>
</defs>
</svg>
