<svg width="111" height="111" viewBox="0 0 111 111" fill="none" xmlns="http://www.w3.org/2000/svg">
<circle cx="55.5" cy="55.5" r="55.5" fill="#E1EDFF"/>
<g clip-path="url(#clip0_262_1171)">
<path d="M28.3463 60.1398L50.8601 82.6537C39.3631 80.7103 30.2897 71.6369 28.3463 60.1398Z" fill="#5E6AD2"/>
<path d="M28 54.0277L56.9723 83C58.6953 82.908 60.3763 82.6574 62.0007 82.2627L28.7373 48.9993C28.3426 50.6238 28.0921 52.3047 28 54.0277Z" fill="#5E6AD2"/>
<path d="M30.1793 44.6755L66.3245 80.8207C67.6409 80.2557 68.9045 79.591 70.1055 78.836L32.164 40.8944C31.409 42.0955 30.7443 43.359 30.1793 44.6755Z" fill="#5E6AD2"/>
<path d="M34.6129 37.5775C39.6598 31.7133 47.1363 28 55.4802 28C70.679 28 83 40.321 83 55.5199C83 63.8637 79.2867 71.3403 73.4225 76.3871L34.6129 37.5775Z" fill="#5E6AD2"/>
</g>
<defs>
<clipPath id="clip0_262_1171">
<rect width="55" height="55" fill="white" transform="translate(28 28)"/>
</clipPath>
</defs>
</svg>
