<svg width="82" height="82" viewBox="0 0 82 82" fill="none" xmlns="http://www.w3.org/2000/svg">
<rect width="82" height="82" rx="41" fill="#2684FC" fill-opacity="0.15"/>
<g clip-path="url(#clip0_873_327)">
<path d="M61.0817 20H30.3834C29.324 20 28.4651 20.8617 28.4651 21.9247V30.5L46.2558 35.75L63 30.5V21.9247C63 20.8617 62.1412 20 61.0817 20Z" fill="#41A5EE"/>
<path d="M63 30.5H28.4651V41L46.2558 44.15L63 41V30.5Z" fill="#2B7CD3"/>
<path d="M28.4651 41V51.5L45.2093 53.6L63 51.5V41H28.4651Z" fill="#185ABD"/>
<path d="M30.3834 62H61.0818C62.1412 62 63 61.1383 63 60.0753V51.5H28.4651V60.0753C28.4651 61.1383 29.324 62 30.3834 62Z" fill="#103F91"/>
<path opacity="0.1" d="M41.198 28.3999H28.4651V54.6499H41.198C42.256 54.6464 43.1128 53.7868 43.1163 52.7252V30.3246C43.1128 29.263 42.256 28.4034 41.198 28.3999Z" fill="black"/>
<path opacity="0.2" d="M40.1515 29.45H28.4651V55.7H40.1515C41.2095 55.6965 42.0663 54.8368 42.0698 53.7753V31.3746C42.0663 30.3131 41.2095 29.4534 40.1515 29.45Z" fill="black"/>
<path opacity="0.2" d="M40.1515 29.45H28.4651V53.6H40.1515C41.2095 53.5965 42.0663 52.7368 42.0698 51.6753V31.3746C42.0663 30.3131 41.2095 29.4534 40.1515 29.45Z" fill="black"/>
<path opacity="0.2" d="M39.105 29.45H28.4651V53.6H39.105C40.163 53.5965 41.0198 52.7368 41.0233 51.6753V31.3746C41.0198 30.3131 40.163 29.4534 39.105 29.45Z" fill="black"/>
<path d="M19.9183 29.45H39.105C40.1644 29.45 41.0233 30.3116 41.0233 31.3746V50.6253C41.0233 51.6883 40.1644 52.55 39.105 52.55H19.9183C18.8588 52.55 18 51.6883 18 50.6253V31.3746C18 30.3116 18.8588 29.45 19.9183 29.45Z" fill="url(#paint0_linear_873_327)"/>
<path d="M25.8719 44.211C25.9095 44.5081 25.9347 44.7664 25.9462 44.988H25.9901C26.0069 44.778 26.0417 44.5249 26.0948 44.2288C26.1478 43.9327 26.1956 43.6825 26.2381 43.4781L28.2558 34.7442H30.8648L32.9578 43.3468C33.0794 43.8818 33.1665 44.424 33.2184 44.9701H33.2529C33.2919 44.441 33.3647 43.9149 33.4706 43.3951L35.1398 34.74H37.5143L34.582 47.256H31.8077L29.8193 38.9673C29.7618 38.7289 29.6958 38.4171 29.6236 38.0338C29.5514 37.6506 29.5064 37.3702 29.4886 37.1938H29.4541C29.4311 37.3975 29.386 37.6999 29.3191 38.101C29.2521 38.5021 29.1984 38.7989 29.1579 38.9914L27.2888 47.2539H24.4674L21.5194 34.7442H23.9368L25.7546 43.4959C25.7955 43.6755 25.8342 43.9149 25.8719 44.211Z" fill="white"/>
</g>
<defs>
<linearGradient id="paint0_linear_873_327" x1="21.9996" y1="27.9461" x2="37.0988" y2="54.0103" gradientUnits="userSpaceOnUse">
<stop stop-color="#2368C4"/>
<stop offset="0.5" stop-color="#1A5DBE"/>
<stop offset="1" stop-color="#1146AC"/>
</linearGradient>
<clipPath id="clip0_873_327">
<rect width="45" height="42" fill="white" transform="translate(18 20)"/>
</clipPath>
</defs>
</svg>
