<svg width="82" height="82" viewBox="0 0 82 82" fill="none" xmlns="http://www.w3.org/2000/svg">
<circle cx="41" cy="41" r="41" fill="#E45252" fill-opacity="0.18"/>
<g clip-path="url(#clip0_874_423)">
<path d="M45.4186 43.2L42.1395 19H41.8947C29.9711 19.035 20.3139 28.754 20.2791 40.7536V41L45.4186 43.2Z" fill="#ED6C47"/>
<path d="M42.3844 19H42.1395V41L53.0698 45.4L64 41V40.7536C63.9652 28.754 54.3079 19.035 42.3844 19Z" fill="#FF8F6B"/>
<path d="M64 41V41.242C63.9658 53.2443 54.3062 62.9656 42.38 63H41.8991C29.9729 62.9656 20.3133 53.2443 20.2791 41.242V41H64Z" fill="#D35230"/>
<path opacity="0.1" d="M43.2326 29.8131V53.2871C43.2271 54.1027 42.736 54.8355 41.9865 55.146C41.7479 55.2476 41.4914 55.3 41.2323 55.3H25.4381C25.1321 54.948 24.837 54.574 24.5637 54.2C21.779 50.4616 20.2755 45.9144 20.2791 41.242V40.7581C20.2727 36.5438 21.4965 32.4204 23.7986 28.9C24.0391 28.526 24.2905 28.152 24.5637 27.8H41.2323C42.3336 27.8084 43.2242 28.7048 43.2326 29.8131Z" fill="black"/>
<path opacity="0.2" d="M42.1395 30.9129V54.3869C42.1395 54.6477 42.0874 54.9058 41.9865 55.1459C41.6779 55.9001 40.9498 56.3944 40.1393 56.3999H26.4328C26.0869 56.0466 25.7551 55.6796 25.4381 55.2999C25.132 54.9479 24.8369 54.5739 24.5637 54.1999C21.779 50.4614 20.2754 45.9142 20.279 41.2419V40.7579C20.2726 36.5436 21.4965 32.4202 23.7986 28.8999H40.1393C41.2405 28.9083 42.1312 29.8046 42.1395 30.9129Z" fill="black"/>
<path opacity="0.2" d="M42.1395 30.9131V52.1871C42.1312 53.2954 41.2405 54.1917 40.1393 54.2001H24.5637C21.779 50.4616 20.2755 45.9144 20.2791 41.2421V40.7581C20.2727 36.5439 21.4965 32.4205 23.7986 28.9001H40.1393C41.2405 28.9085 42.1312 29.8049 42.1395 30.9131Z" fill="black"/>
<path opacity="0.2" d="M41.0465 30.9131V52.1871C41.0382 53.2954 40.1475 54.1917 39.0463 54.2001H24.5637C21.779 50.4616 20.2755 45.9144 20.2791 41.2421V40.7581C20.2727 36.5439 21.4965 32.4205 23.7986 28.9001H39.0463C40.1475 28.9085 41.0382 29.8049 41.0465 30.9131Z" fill="black"/>
<path d="M19.0035 28.8999H39.043C40.1495 28.8999 41.0465 29.8026 41.0465 30.9162V51.0836C41.0465 52.1972 40.1495 53.0999 39.043 53.0999H19.0035C17.897 53.0999 17 52.1972 17 51.0836V30.9162C17 29.8026 17.897 28.8999 19.0035 28.8999Z" fill="url(#paint0_linear_874_423)"/>
<path d="M29.2418 34.278C30.5463 34.1894 31.8396 34.5707 32.8904 35.3538C33.7667 36.1412 34.235 37.2901 34.1604 38.4701C34.1748 39.2903 33.9576 40.0978 33.5341 40.7988C33.1055 41.4877 32.4878 42.037 31.7558 42.3806C30.9189 42.7723 30.0039 42.9657 29.0811 42.946H26.5464V47.687H23.9505V34.278H29.2418ZM26.5443 40.8978H28.7784C29.4867 40.9501 30.1894 40.7392 30.7535 40.3049C31.22 39.8545 31.4646 39.2193 31.4213 38.5702C31.4213 37.0925 30.5681 36.3537 28.8615 36.3537H26.5443V40.8978H26.5443Z" fill="white"/>
</g>
<defs>
<linearGradient id="paint0_linear_874_423" x1="21.1774" y1="27.3244" x2="37.0194" y2="54.5881" gradientUnits="userSpaceOnUse">
<stop stop-color="#CA4C28"/>
<stop offset="0.5" stop-color="#C5401E"/>
<stop offset="1" stop-color="#B62F14"/>
</linearGradient>
<clipPath id="clip0_874_423">
<rect width="47" height="44" fill="white" transform="translate(17 19)"/>
</clipPath>
</defs>
</svg>
