<svg width="82" height="82" viewBox="0 0 82 82" fill="none" xmlns="http://www.w3.org/2000/svg">
<rect width="82" height="82" rx="41" fill="#00AC47" fill-opacity="0.15"/>
<g clip-path="url(#clip0_874_399)">
<path d="M46.2558 39.95L28.4651 36.8V60.0754C28.4651 61.1384 29.3239 62 30.3834 62H61.0818C62.1412 62 63 61.1384 63 60.0754V51.5L46.2558 39.95Z" fill="#185C37"/>
<path d="M46.2558 20H30.3834C29.3239 20 28.4651 20.8617 28.4651 21.9246V30.5L46.2558 41L55.6744 44.15L63 41V30.5L46.2558 20Z" fill="#21A366"/>
<path d="M28.4651 30.5H46.2558V41H28.4651V30.5Z" fill="#107C41"/>
<path opacity="0.1" d="M41.198 28.3999H28.4651V54.6499H41.198C42.256 54.6465 43.1128 53.7868 43.1163 52.7253V30.3245C43.1128 29.263 42.256 28.4034 41.198 28.3999Z" fill="black"/>
<path opacity="0.2" d="M40.1515 29.45H28.4651V55.7H40.1515C41.2095 55.6965 42.0663 54.8368 42.0698 53.7753V31.3746C42.0663 30.3131 41.2095 29.4534 40.1515 29.45Z" fill="black"/>
<path opacity="0.2" d="M40.1515 29.45H28.4651V53.6H40.1515C41.2095 53.5965 42.0663 52.7368 42.0698 51.6753V31.3746C42.0663 30.3131 41.2095 29.4534 40.1515 29.45Z" fill="black"/>
<path opacity="0.2" d="M39.105 29.45H28.4651V53.6H39.105C40.163 53.5965 41.0198 52.7368 41.0233 51.6753V31.3746C41.0198 30.3131 40.163 29.4534 39.105 29.45Z" fill="black"/>
<path d="M19.9183 29.45H39.105C40.1644 29.45 41.0232 30.3116 41.0232 31.3746V50.6253C41.0232 51.6882 40.1644 52.5499 39.105 52.5499H19.9183C18.8588 52.55 18 51.6883 18 50.6253V31.3746C18 30.3116 18.8588 29.45 19.9183 29.45Z" fill="url(#paint0_linear_874_399)"/>
<path d="M23.941 47.256L27.9764 40.9823L24.2791 34.7432H27.2532L29.2709 38.7332C29.4572 39.1122 29.5849 39.3936 29.654 39.5795H29.6801C29.8127 39.2771 29.9522 38.9834 30.0987 38.6985L32.2556 34.7453H34.9859L31.1944 40.9476L35.0822 47.256H32.1771L29.8465 42.8765C29.7367 42.6901 29.6436 42.4944 29.5681 42.2916H29.5336C29.4653 42.4903 29.3748 42.6805 29.2636 42.8586L26.864 47.256H23.941Z" fill="white"/>
<path d="M61.0817 20H46.2558V30.5H63V21.9246C63 20.8617 62.1412 20 61.0817 20Z" fill="#33C481"/>
<path d="M46.2558 41H63V51.5H46.2558V41Z" fill="#107C41"/>
</g>
<defs>
<linearGradient id="paint0_linear_874_399" x1="21.9996" y1="27.9461" x2="37.0988" y2="54.0103" gradientUnits="userSpaceOnUse">
<stop stop-color="#18884F"/>
<stop offset="0.5" stop-color="#117E43"/>
<stop offset="1" stop-color="#0B6631"/>
</linearGradient>
<clipPath id="clip0_874_399">
<rect width="45" height="42" fill="white" transform="translate(18 20)"/>
</clipPath>
</defs>
</svg>
