<svg width="111" height="111" viewBox="0 0 111 111" fill="none" xmlns="http://www.w3.org/2000/svg">
<circle cx="55.5" cy="55.5" r="55.5" fill="#F7F0E5"/>
<path d="M49.312 31.5699C41.6778 32.1361 35.1879 32.6567 34.8828 32.7177C34.0273 32.8706 33.249 33.4523 32.883 34.2178L32.5624 34.8914L32.5933 50.9449L32.6387 66.9985L33.1273 67.9934C33.4025 68.544 35.2652 71.1154 37.2959 73.7623C41.3119 78.9806 41.6016 79.2719 43.1282 79.4248C43.5714 79.4703 46.8999 79.3174 50.5036 79.1035C54.1227 78.8741 59.9242 78.5219 63.4062 78.3235C78.2777 77.4186 77.5139 77.4951 78.3685 76.7605C79.4374 75.8731 79.3611 77.3267 79.4065 57.8152C79.4374 41.2719 79.422 40.1861 79.1777 39.6809C78.888 39.1148 78.3685 38.717 71.5889 33.942C67.0543 30.7589 66.7337 30.5905 64.7021 30.5596C63.8629 30.5296 56.9308 30.9883 49.312 31.5699ZM66.474 33.6661C67.1151 33.9565 71.8032 37.2314 72.4898 37.8595C72.6732 38.0434 72.7341 38.1963 72.6423 38.2883C72.4289 38.4721 43.4169 40.2016 42.5778 40.0787C42.1964 40.0177 41.6315 39.7883 41.3109 39.5735C39.9822 38.6705 36.6846 35.9617 36.6846 35.7633C36.6846 35.2427 36.5774 35.2427 49.5109 34.3097C51.9849 34.1413 56.0463 33.8355 58.5202 33.6361C63.8784 33.2074 65.4823 33.2229 66.474 33.6661ZM75.6966 42.0375C75.91 42.2513 76.0935 42.6646 76.1543 43.0623C76.1997 43.4301 76.2306 50.2859 76.1997 58.2739C76.1543 71.9855 76.1389 72.8429 75.8791 73.2407C75.7265 73.4855 75.4214 73.7459 75.1916 73.8223C74.5514 74.0827 44.1508 75.8121 43.5251 75.6282C43.2354 75.5518 42.8376 75.3069 42.6242 75.093L42.2572 74.6953L42.2118 59.9124C42.1809 49.5368 42.2118 44.9456 42.3345 44.5324C42.4262 44.2266 42.6551 43.8588 42.854 43.7369C43.1292 43.553 44.931 43.4001 51.1303 43.0333C55.4823 42.7885 62.2156 42.3752 66.079 42.1458C75.2688 41.5787 75.2389 41.5787 75.6966 42.0375Z" fill="black"/>
<path d="M66.474 33.6662C67.1151 33.9565 71.8032 37.2315 72.4898 37.8596C72.6732 38.0435 72.7341 38.1964 72.6423 38.2883C72.4289 38.4722 43.4169 40.2016 42.5778 40.0787C42.1964 40.0177 41.6315 39.7884 41.3109 39.5735C39.9822 38.6706 36.6846 35.9618 36.6846 35.7634C36.6846 35.2427 36.5774 35.2427 49.5109 34.3098C51.9849 34.1414 56.0463 33.8355 58.5202 33.6362C63.8784 33.2075 65.4823 33.2229 66.474 33.6662ZM75.6966 42.0375C75.91 42.2514 76.0935 42.6646 76.1543 43.0624C76.1997 43.4301 76.2306 50.2859 76.1997 58.274C76.1543 71.9855 76.1388 72.843 75.8791 73.2407C75.7265 73.4856 75.4214 73.7459 75.1916 73.8224C74.5514 74.0827 44.1508 75.8121 43.5251 75.6283C43.2354 75.5518 42.8376 75.3069 42.6242 75.0931L42.2572 74.6953L42.2118 59.9124C42.1809 49.5368 42.2118 44.9457 42.3345 44.5324C42.4262 44.2266 42.6551 43.8589 42.854 43.7369C43.1292 43.553 44.931 43.4001 51.1303 43.0333C55.4823 42.7885 62.2156 42.3753 66.079 42.1459C75.2688 41.5788 75.2389 41.5788 75.6966 42.0375Z" fill="white"/>
<path d="M67.5272 47.1027C65.8779 47.2101 64.4121 47.363 64.2441 47.455C63.7401 47.7153 63.4349 48.144 63.3741 48.6337C63.3287 49.1389 63.4813 49.1999 65.1296 49.3992L65.847 49.4912V56.0256C65.847 59.9121 65.7862 62.4835 65.7099 62.407C65.6336 62.3151 63.4658 59.0102 60.8847 55.0617C58.3046 51.0986 56.1667 47.8382 56.1358 47.8082C56.1049 47.7772 54.4257 47.8692 52.4104 48.0076C49.9365 48.176 48.5779 48.3289 48.3027 48.4818C47.8595 48.7111 47.3709 49.5221 47.3709 50.0583C47.3709 50.3796 47.9512 50.548 49.1727 50.548H49.8139V69.3402L48.7759 69.6615C47.9667 69.9063 47.6915 70.0592 47.5543 70.365C47.31 70.8857 47.3255 71.3599 47.5698 71.3599C47.6615 71.3599 49.3871 71.2525 51.3714 71.1305C55.2957 70.9012 55.738 70.7938 56.1503 69.9828C56.2729 69.7379 56.3791 69.4776 56.3791 69.4011C56.3791 69.3402 55.8452 69.1563 55.203 69.0034C54.5464 68.8505 53.8898 68.6976 53.7527 68.6666C53.4929 68.5901 53.4775 68.1159 53.4775 61.5351V54.48L58.1192 61.7799C62.9898 69.4311 63.601 70.3041 64.3494 70.6863C65.2812 71.176 67.6479 70.8392 68.8385 70.0592L69.2055 69.8299L69.2364 59.3934L69.2817 48.9415L70.0909 48.7886C71.0527 48.6047 71.4959 48.1614 71.4959 47.3959C71.4959 46.9062 71.465 46.8753 71.0073 46.8908C70.734 46.9033 69.161 46.9953 67.5272 47.1027Z" fill="black"/>
</svg>
