<svg width="82" height="82" viewBox="0 0 82 82" fill="none" xmlns="http://www.w3.org/2000/svg">
<circle cx="41" cy="41" r="41" fill="#E45252" fill-opacity="0.18"/>
<path d="M27.5711 19.0002C25.0513 19.0002 23 21.0408 23 23.5457V58.4543C23 60.9592 25.0513 62.9998 27.5711 62.9998H54.423C56.9429 62.9998 58.9942 60.9593 58.9942 58.4543V29.7497C58.9942 29.7497 59.0661 28.9092 58.699 28.0913C58.355 27.3246 57.7942 26.791 57.7942 26.791C57.7928 26.7891 57.7914 26.7872 57.79 26.7853L51.128 20.2893C51.1243 20.2856 51.1206 20.2819 51.1169 20.2783C51.1169 20.2783 50.5481 19.7399 49.705 19.3802C48.7122 18.9567 47.6889 19.0014 47.6889 19.0014L47.7041 19L27.5711 19.0002Z" fill="#FF2116"/>
<path d="M27.5712 20.4934H47.7042C47.7093 20.4935 47.7143 20.4935 47.7194 20.4934C47.7194 20.4934 48.5245 20.5012 49.1133 20.7524C49.6801 20.9941 50.082 21.3601 50.0847 21.3626C50.0847 21.3626 50.0874 21.3654 50.0874 21.3654L56.7329 27.8463C56.7329 27.8463 57.1332 28.2665 57.3273 28.6989C57.4839 29.048 57.4936 29.6865 57.4936 29.6865C57.4929 29.6971 57.4924 29.7076 57.4921 29.7182V58.4544C57.4921 60.1583 56.1369 61.5069 54.423 61.5069H27.5712C25.8572 61.5069 24.502 60.1584 24.502 58.4544V23.5459C24.502 21.842 25.8572 20.4934 27.5712 20.4934Z" fill="#F5F5F5"/>
<path d="M31.9875 45.1973C30.9541 44.1699 32.0722 42.7582 35.1065 41.2591L37.0158 40.3159L37.7596 38.6981C38.1687 37.8083 38.7792 36.3564 39.1164 35.4717L39.7294 33.8631L39.307 32.6727C38.7876 31.209 38.6023 29.0094 38.9319 28.2185C39.3783 27.1471 40.8405 27.257 41.4194 28.4055C41.8715 29.3024 41.8252 30.9266 41.2893 32.9751L40.85 34.6545L41.237 35.3076C41.4498 35.6668 42.0716 36.5197 42.6186 37.2029L43.6467 38.4743L44.9261 38.3083C48.9905 37.7811 50.3826 38.6771 50.3826 39.9619C50.3826 41.5835 47.1912 41.7173 44.5112 39.8461C43.9082 39.4251 43.4941 39.0069 43.4941 39.0069C43.4941 39.0069 41.8152 39.3466 40.9886 39.5681C40.1354 39.7967 39.7097 39.9399 38.4598 40.3593C38.4598 40.3593 38.0213 40.9924 37.7355 41.4526C36.6724 43.1649 35.431 44.5839 34.5445 45.1004C33.552 45.6787 32.5114 45.7181 31.9875 45.1973ZM33.6093 44.6213C34.1902 44.2644 35.366 42.882 36.1799 41.5989L36.5094 41.0794L35.009 41.8294C32.6916 42.9877 31.6314 44.0794 32.1827 44.7397C32.4924 45.1107 32.8628 45.0799 33.6093 44.6213ZM48.6622 40.421C49.2303 40.0253 49.1479 39.2281 48.5055 38.9066C48.0056 38.6565 47.6027 38.6051 46.304 38.6242C45.506 38.6782 44.2227 38.8381 44.0052 38.8868C44.0052 38.8868 44.7102 39.3711 45.0232 39.5491C45.4398 39.7857 46.4523 40.2249 47.1916 40.4498C47.9208 40.6717 48.3426 40.6483 48.6622 40.421ZM42.6096 37.9202C42.2657 37.5609 41.681 36.8109 41.3103 36.2535C40.8253 35.6213 40.5822 35.1753 40.5822 35.1753C40.5822 35.1753 40.2277 36.3086 39.937 36.9906L39.0298 39.2197L38.7667 39.7253C38.7667 39.7253 40.1651 39.2696 40.8765 39.0848C41.6301 38.8891 43.1594 38.5902 43.1594 38.5902L42.6096 37.9202ZM40.6591 30.1443C40.7468 29.4126 40.784 28.682 40.5475 28.3135C39.8916 27.6007 39.0999 28.1951 39.234 29.8899C39.2791 30.46 39.4216 31.4346 39.6121 32.0353L39.9584 33.1275L40.2021 32.3049C40.3362 31.8525 40.5418 30.8802 40.6591 30.1443Z" fill="#FF2116"/>
<path d="M33.7449 49.9546H35.4227C35.9588 49.9546 36.394 50.0056 36.7283 50.1076C37.0625 50.2063 37.3438 50.4283 37.5721 50.7737C37.8005 51.1159 37.9146 51.5287 37.9146 52.0123C37.9146 52.4564 37.822 52.8381 37.6367 53.1572C37.4513 53.4763 37.2015 53.7066 36.8871 53.848C36.576 53.9895 36.0962 54.0602 35.4476 54.0602H34.8668V56.6904H33.7449V49.9546ZM34.8668 50.8182V53.167H35.4227C35.9191 53.167 36.2616 53.0749 36.4503 52.8907C36.6422 52.7065 36.7382 52.4071 36.7382 51.9926C36.7382 51.6834 36.6753 51.4333 36.5496 51.2425C36.4238 51.0484 36.2848 50.93 36.1326 50.8872C35.9837 50.8412 35.7471 50.8181 35.4227 50.8181L34.8668 50.8182ZM38.7734 49.9546H40.2973C41.0353 49.9546 41.6243 50.0845 42.0645 50.3444C42.5079 50.6043 42.8422 50.9909 43.0672 51.5041C43.2955 52.0173 43.4097 52.5864 43.4097 53.2114C43.4097 53.8694 43.3071 54.4566 43.1019 54.9731C42.9001 55.4863 42.589 55.9008 42.1687 56.2166C41.7517 56.5325 41.1561 56.6904 40.3817 56.6904H38.7734V49.9546ZM39.8952 50.8478V55.7972H40.3618C41.0138 55.7972 41.487 55.5735 41.7815 55.1261C42.0761 54.6754 42.2233 54.075 42.2233 53.3249C42.2233 51.6735 41.6028 50.8478 40.3618 50.8478H39.8952ZM44.4869 49.9546H48.2495V50.8478H45.6087V52.8611H47.7233V53.7543H45.6087V56.6904H44.4869V49.9546Z" fill="#2C2C2C"/>
</svg>
