<svg width="111" height="111" viewBox="0 0 111 111" fill="none" xmlns="http://www.w3.org/2000/svg">
<circle cx="55.5" cy="55.5" r="55.5" fill="#E5F4E8"/>
<path d="M56.1395 58.6428C64.6164 58.6428 71.4883 51.7832 71.4883 43.3214C71.4883 34.8596 64.6164 28 56.1395 28C47.6626 28 40.7906 34.8596 40.7906 43.3214C40.7906 51.7832 47.6626 58.6428 56.1395 58.6428Z" fill="#036C70"/>
<path d="M68.9302 71.4108C76.7008 71.4108 83 65.1228 83 57.3662C83 49.6095 76.7008 43.3215 68.9302 43.3215C61.1597 43.3215 54.8605 49.6095 54.8605 57.3662C54.8605 65.1228 61.1597 71.4108 68.9302 71.4108Z" fill="#1A9BA1"/>
<path d="M58.0581 81.625C64.0626 81.625 68.9302 76.7661 68.9302 70.7723C68.9302 64.7786 64.0626 59.9197 58.0581 59.9197C52.0536 59.9197 47.186 64.7786 47.186 70.7723C47.186 76.7661 52.0536 81.625 58.0581 81.625Z" fill="#37C6D0"/>
<path d="M30.3445 40.7678H53.795C55.0898 40.7678 56.1395 41.8156 56.1395 43.1082V66.5167C56.1395 67.8093 55.0898 68.8571 53.795 68.8571H30.3445C29.0497 68.8571 28 67.8093 28 66.5167V43.1082C28 41.8156 29.0497 40.7678 30.3445 40.7678Z" fill="url(#paint0_linear_421_814)"/>
<path d="M38.4717 54.5266C37.9223 54.1628 37.4633 53.6785 37.13 53.1106C36.8069 52.517 36.646 51.849 36.6631 51.1737C36.6343 50.2593 36.9434 49.3664 37.5316 48.6648C38.1496 47.9624 38.9485 47.4422 39.8416 47.1608C40.8594 46.8263 41.9255 46.6615 42.997 46.673C44.4061 46.6216 45.8132 46.8183 47.154 47.254V50.1906C46.5714 49.8383 45.9369 49.5798 45.2738 49.4245C44.5542 49.2484 43.8159 49.1601 43.075 49.1615C42.2938 49.1329 41.5176 49.2969 40.8149 49.639C40.2725 49.8726 39.9207 50.4053 39.9196 50.995C39.9174 51.3527 40.055 51.6971 40.3033 51.9551C40.5965 52.2593 40.9434 52.5068 41.3266 52.6855C41.7529 52.8974 42.3925 53.1792 43.2452 53.5307C43.3391 53.5603 43.4306 53.597 43.5189 53.6405C44.3581 53.9679 45.1678 54.3665 45.9389 54.8317C46.5229 55.1912 47.013 55.6839 47.3689 56.2694C47.7338 56.9331 47.9107 57.6835 47.8805 58.4399C47.9222 59.3787 47.6345 60.3025 47.067 61.0522C46.5014 61.7415 45.7453 62.2495 44.8926 62.5129C43.8897 62.8267 42.843 62.9784 41.7921 62.9623C40.8493 62.9666 39.9078 62.8897 38.9782 62.7325C38.1933 62.6043 37.4273 62.3796 36.6976 62.0634V58.9672C37.3951 59.4644 38.1742 59.8361 39 60.0653C39.8229 60.3213 40.6783 60.458 41.5402 60.4713C42.3379 60.5217 43.1341 60.3531 43.8425 59.9836C44.3388 59.704 44.6406 59.1746 44.6279 58.6059C44.6312 58.2102 44.4744 57.83 44.193 57.5513C43.8431 57.2084 43.4379 56.9266 42.9945 56.7175C42.4829 56.4622 41.7295 56.1256 40.7344 55.7076C39.9427 55.3899 39.1848 54.9943 38.4717 54.5266Z" fill="white"/>
<defs>
<linearGradient id="paint0_linear_421_814" x1="32.8884" y1="38.9391" x2="51.2019" y2="70.7141" gradientUnits="userSpaceOnUse">
<stop stop-color="#058F92"/>
<stop offset="0.5" stop-color="#038489"/>
<stop offset="1" stop-color="#026D71"/>
</linearGradient>
</defs>
</svg>
