<svg width="111" height="111" viewBox="0 0 111 111" fill="none" xmlns="http://www.w3.org/2000/svg">
<circle cx="55.5" cy="55.5" r="55.5" fill="#E5F4E8"/>
<g clip-path="url(#clip0_262_1181)">
<path d="M54.625 35.25C54.625 36.7775 54.625 40.5 54.625 40.5C54.625 40.5 50.747 40.5 49.375 40.5C46.4755 40.5 44.125 38.1495 44.125 35.25C44.125 32.3505 46.4755 30 49.375 30C52.2745 30 54.625 32.3505 54.625 35.25Z" fill="#36C5F0"/>
<path d="M75.75 53.625C74.2225 53.625 70.5 53.625 70.5 53.625C70.5 53.625 70.5 49.747 70.5 48.375C70.5 45.4755 72.8505 43.125 75.75 43.125C78.6495 43.125 81 45.4755 81 48.375C81 51.2745 78.6495 53.625 75.75 53.625Z" fill="#2EB67D"/>
<path d="M67.846 48.3767C67.8448 51.2756 65.4944 53.625 62.5955 53.625C59.6952 53.625 57.3443 51.2735 57.3449 48.3733L57.3478 35.2508C57.3485 32.3507 59.6997 30 62.5998 30C65.5012 30 67.853 32.3528 67.8517 35.2542L67.846 48.3767Z" fill="#2EB67D"/>
<path d="M57.3951 74.75C57.3951 73.2225 57.3951 69.5 57.3951 69.5C57.3951 69.5 61.2731 69.5 62.6451 69.5C65.5446 69.5 67.8951 71.8505 67.8951 74.75C67.8951 77.6495 65.5446 80 62.6451 80C59.7456 80 57.3951 77.6495 57.3951 74.75Z" fill="#ECB22E"/>
<path d="M62.6144 66.8437C59.7146 66.8437 57.3638 64.493 57.3638 61.5932C57.3638 58.6938 59.7139 56.3432 62.6133 56.3426L75.7469 56.3398C78.6479 56.3392 81 58.6908 81 61.5918C81 64.4924 78.6486 66.8437 75.7481 66.8437L62.6144 66.8437Z" fill="#ECB22E"/>
<path d="M36.25 56.375C37.7775 56.375 41.5 56.375 41.5 56.375C41.5 56.375 41.5 60.253 41.5 61.625C41.5 64.5245 39.1495 66.875 36.25 66.875C33.3505 66.875 31 64.5245 31 61.625C31 58.7255 33.3505 56.375 36.25 56.375Z" fill="#E01E5A"/>
<path d="M44.1852 61.6233C44.1865 58.7244 46.5369 56.375 49.4358 56.375C52.336 56.375 54.687 58.7265 54.6863 61.6267L54.6834 74.7492C54.6828 77.6493 52.3316 80 49.4315 80C46.53 80 44.1783 77.6472 44.1795 74.7458L44.1852 61.6233Z" fill="#E01E5A"/>
<path d="M49.3767 43.1852C52.2756 43.1865 54.625 45.5369 54.625 48.4358C54.625 51.336 52.2735 53.687 49.3733 53.6863L36.2508 53.6834C33.3507 53.6828 31 51.3316 31 48.4315C31 45.53 33.3528 43.1783 36.2542 43.1795L49.3767 43.1852Z" fill="#36C5F0"/>
</g>
<defs>
<clipPath id="clip0_262_1181">
<rect width="50" height="50" fill="white" transform="translate(31 30)"/>
</clipPath>
</defs>
</svg>
