<svg width="111" height="111" viewBox="0 0 111 111" fill="none" xmlns="http://www.w3.org/2000/svg">
<circle cx="55.5" cy="55.5" r="55.5" fill="#F7F0E5"/>
<g clip-path="url(#clip0_262_1147)">
<g clip-path="url(#clip1_262_1147)">
<path d="M28 28H83V83H28V28Z" fill="#2F2F30"/>
<path d="M70.6932 52.1606C70.6932 54.2811 69.1285 56.041 67.0982 56.3458C66.1296 54.847 64.4656 53.8396 62.5656 53.7961C62.3545 53.2924 62.2365 52.7389 62.2365 52.1606C62.2365 49.8223 64.1365 47.9256 66.4649 47.9256C68.7932 47.9256 70.6932 49.8285 70.6932 52.1606ZM66.0054 41.5452C63.6708 41.5452 61.777 43.4481 61.777 45.7802C61.777 46.6819 62.0627 47.5214 62.547 48.2117C63.5528 47.2105 64.9374 46.5948 66.4649 46.5948C67.7067 46.5948 68.8553 47.0052 69.7805 47.6955C70.0723 47.1234 70.2399 46.4704 70.2399 45.7864C70.2337 43.4481 68.34 41.5452 66.0054 41.5452ZM57.0334 60.6678C56.7229 60.5931 56.4 60.5558 56.071 60.5558C53.7364 60.5558 51.8426 62.4587 51.8426 64.7908C51.8426 67.1228 53.7426 69.0257 56.071 69.0257C58.3993 69.0257 60.2993 67.1228 60.2993 64.7908C60.2993 64.6975 60.2931 64.6104 60.2869 64.5171C58.6725 63.8393 57.4432 62.409 57.0334 60.6678ZM50.5077 64.7908C50.5077 64.088 50.6381 63.4164 50.8802 62.7946C50.6194 62.7448 50.3524 62.7137 50.073 62.7137C47.7384 62.7137 45.8447 64.6166 45.8447 66.9486C45.8447 69.2869 47.7447 71.1836 50.073 71.1836C51.3894 71.1836 52.5629 70.5804 53.339 69.6351C51.6501 68.6837 50.5077 66.8678 50.5077 64.7908ZM40.6974 64.9276C40.6974 67.2658 42.5974 69.1625 44.9258 69.1625C44.9382 69.1625 44.9568 69.1625 44.9692 69.1625C44.6774 68.4847 44.5098 67.7384 44.5098 66.9549C44.5098 64.6788 45.8757 62.7261 47.8316 61.8617C47.0741 61.1404 46.0496 60.6926 44.9258 60.6926C42.5974 60.6926 40.6974 62.5956 40.6974 64.9276ZM44.5346 54.02C42.2 54.02 40.3062 55.9229 40.3062 58.2549C40.3062 59.2188 40.6291 60.1081 41.1755 60.8232C42.1627 59.9153 43.4791 59.3618 44.9258 59.3618C46.1365 59.3618 47.2604 59.7536 48.1731 60.4128C48.5518 59.7785 48.7691 59.0385 48.7691 58.2549C48.7691 55.9167 46.8692 54.02 44.5346 54.02ZM49.7502 46.0973C47.5335 46.0973 45.7329 47.9007 45.7329 50.1208C45.7329 52.3409 47.5335 54.1443 49.7502 54.1443C51.9668 54.1443 53.7674 52.3409 53.7674 50.1208C53.7674 47.9007 51.9668 46.0973 49.7502 46.0973ZM62.4476 55.158C60.113 55.158 58.2255 57.0547 58.2255 59.3867C58.2255 61.7187 60.1192 63.6154 62.4476 63.6154C64.776 63.6154 66.6698 61.7187 66.6698 59.3867C66.6698 57.0547 64.7822 55.158 62.4476 55.158ZM55.9654 44.0451C55.9654 46.3834 57.8654 48.2801 60.1937 48.2801C60.4669 48.2801 60.7339 48.2552 60.9947 48.2055C60.6408 47.4717 60.4421 46.6508 60.4421 45.7864C60.4421 43.7653 61.5225 41.993 63.1368 41.0166C62.3731 40.2766 61.3362 39.8164 60.1875 39.8164C57.8654 39.8102 55.9654 41.7069 55.9654 44.0451Z" fill="#F9EFE4"/>
</g>
</g>
<defs>
<clipPath id="clip0_262_1147">
<rect width="55" height="55" fill="white" transform="translate(28 28)"/>
</clipPath>
<clipPath id="clip1_262_1147">
<rect x="28" y="28" width="55" height="55" rx="27.5" fill="white"/>
</clipPath>
</defs>
</svg>
