<svg width="82" height="82" viewBox="0 0 82 82" fill="none" xmlns="http://www.w3.org/2000/svg">
<circle cx="41" cy="41" r="41" fill="#9152E4" fill-opacity="0.15"/>
<path fill-rule="evenodd" clip-rule="evenodd" d="M41 62.875C53.0812 62.875 62.875 53.0812 62.875 41C62.875 28.9188 53.0812 19.125 41 19.125C28.9188 19.125 19.125 28.9188 19.125 41C19.125 53.0812 28.9188 62.875 41 62.875ZM46.816 58.8306C51.2441 57.3872 54.9481 54.34 57.2416 50.375H49.5922C49.2756 52.1503 48.8694 53.7903 48.3841 55.2466C47.9553 56.5325 47.4384 57.7566 46.816 58.8306ZM46.4139 50.375C45.3332 55.9794 43.3134 59.75 41 59.75C38.6866 59.75 36.6668 55.9794 35.5861 50.375H46.4139ZM50.0397 47.25H58.1875C58.3512 47.25 58.5091 47.2753 58.6575 47.3219C59.3647 45.3468 59.75 43.2184 59.75 41C59.75 38.7816 59.3647 36.6532 58.6575 34.6781C58.5091 34.7248 58.3512 34.75 58.1875 34.75H50.0397C50.2591 36.7357 50.375 38.8373 50.375 41C50.375 43.1627 50.2591 45.2643 50.0397 47.25ZM46.8944 34.75C47.1247 36.7049 47.25 38.8085 47.25 41C47.25 43.1915 47.1247 45.2951 46.8944 47.25H35.1056C34.8753 45.2951 34.75 43.1915 34.75 41C34.75 38.8085 34.8753 36.7049 35.1056 34.75H46.8944ZM49.5922 31.625H57.2416C54.9481 27.6601 51.2441 24.6129 46.816 23.1695C47.4384 24.2436 47.9553 25.4674 48.3841 26.7535C48.8694 28.2096 49.2756 29.8497 49.5922 31.625ZM41 22.25C43.3134 22.25 45.3332 26.0206 46.4139 31.625H35.5861C36.6668 26.0206 38.6866 22.25 41 22.25ZM35.184 23.1695C30.7558 24.6129 27.052 27.6601 24.7584 31.625H32.4079C32.7243 29.8497 33.1306 28.2096 33.6159 26.7535C34.0447 25.4674 34.5616 24.2436 35.184 23.1695ZM31.9604 34.75H23.8125C23.6487 34.75 23.4908 34.7248 23.3425 34.6781C22.6353 36.6532 22.25 38.7816 22.25 41C22.25 43.2184 22.6353 45.3468 23.3425 47.3219C23.4908 47.2753 23.6487 47.25 23.8125 47.25H31.9604C31.7408 45.2643 31.625 43.1627 31.625 41C31.625 38.8373 31.7408 36.7357 31.9604 34.75ZM32.4079 50.375H24.7584C27.052 54.34 30.7558 57.3872 35.184 58.8306C34.5616 57.7566 34.0447 56.5325 33.6159 55.2466C33.1306 53.7903 32.7243 52.1503 32.4079 50.375Z" fill="#9152E4"/>
</svg>
