<svg width="111" height="111" viewBox="0 0 111 111" fill="none" xmlns="http://www.w3.org/2000/svg">
<circle cx="55.5" cy="55.5" r="55.5" fill="#F7F0E5"/>
<path fill-rule="evenodd" clip-rule="evenodd" d="M55.5 79.5625C68.7894 79.5625 79.5625 68.7894 79.5625 55.5C79.5625 42.2107 68.7894 31.4375 55.5 31.4375C42.2107 31.4375 31.4375 42.2107 31.4375 55.5C31.4375 68.7894 42.2107 79.5625 55.5 79.5625ZM61.8976 75.1137C66.7685 73.5259 70.8429 70.174 73.3657 65.8125H64.9514C64.6032 67.7653 64.1563 69.5693 63.6225 71.1712C63.1508 72.5858 62.5823 73.9322 61.8976 75.1137ZM61.4553 65.8125C60.2665 71.9773 58.0447 76.125 55.5 76.125C52.9553 76.125 50.7335 71.9773 49.5447 65.8125H61.4553ZM65.4437 62.375H74.4062C74.5864 62.375 74.76 62.4028 74.9233 62.4541C75.7012 60.2815 76.125 57.9402 76.125 55.5C76.125 53.0598 75.7012 50.7186 74.9233 48.5459C74.76 48.5973 74.5864 48.625 74.4062 48.625H65.4437C65.685 50.8093 65.8125 53.1211 65.8125 55.5C65.8125 57.8789 65.685 60.1907 65.4437 62.375ZM61.9838 48.625C62.2372 50.7754 62.375 53.0894 62.375 55.5C62.375 57.9106 62.2372 60.2246 61.9838 62.375H49.0162C48.7628 60.2246 48.625 57.9106 48.625 55.5C48.625 53.0894 48.7628 50.7754 49.0162 48.625H61.9838ZM64.9514 45.1875H73.3657C70.8429 40.8261 66.7685 37.4742 61.8976 35.8864C62.5823 37.0679 63.1508 38.4141 63.6225 39.8289C64.1563 41.4306 64.6032 43.2347 64.9514 45.1875ZM55.5 34.875C58.0447 34.875 60.2665 39.0227 61.4553 45.1875H49.5447C50.7335 39.0227 52.9553 34.875 55.5 34.875ZM49.1024 35.8864C44.2314 37.4742 40.1572 40.8261 37.6342 45.1875H46.0487C46.3967 43.2347 46.8437 41.4306 47.3775 39.8289C47.8491 38.4141 48.4178 37.0679 49.1024 35.8864ZM45.5564 48.625H36.5938C36.4136 48.625 36.2399 48.5973 36.0768 48.5459C35.2988 50.7186 34.875 53.0598 34.875 55.5C34.875 57.9402 35.2988 60.2815 36.0768 62.4541C36.2399 62.4028 36.4136 62.375 36.5938 62.375H45.5564C45.3149 60.1907 45.1875 57.8789 45.1875 55.5C45.1875 53.1211 45.3149 50.8093 45.5564 48.625ZM46.0487 65.8125H37.6342C40.1572 70.174 44.2314 73.5259 49.1024 75.1137C48.4178 73.9322 47.8491 72.5858 47.3775 71.1712C46.8437 69.5693 46.3967 67.7653 46.0487 65.8125Z" fill="#232323"/>
</svg>
